<?xml version="1.0" encoding="utf-8"?>
<!-- Generator: Adobe Illustrator 23.0.1, SVG Export Plug-In . SVG Version: 6.00 Build 0)  -->
<svg version="1.1" id="Capa_1" xmlns="http://www.w3.org/2000/svg" xmlns:xlink="http://www.w3.org/1999/xlink" x="0px" y="0px"
	 viewBox="0 0 26.7 27.2" style="enable-background:new 0 0 26.7 27.2;" xml:space="preserve">
<style type="text/css">
	.st0{fill:#FFFFFF;}
	.st1{fill:#211915;}
</style>
<g id="_x38_DurOJ_1_">
</g>
<path class="st0" d="M-115.8-88.1L-115.8-88.1L-115.8-88.1c0.3,0,0.6,0,0.9,0l0,0l0,0C-115.2-88.1-115.5-88.1-115.8-88.1z"/>
<path class="st0" d="M-115.2-88.1c-0.2,0-0.4,0-0.6,0l0,0l0,0c0.3,0,0.6,0,0.9,0l0,0l0,0C-115-88.1-115.1-88.1-115.2-88.1z"/>
<path class="st0" d="M-106.4-108L-106.4-108C-106.4-108.1-106.4-108.1-106.4-108L-106.4-108L-106.4-108L-106.4-108
	C-106.5-108-106.5-108-106.4-108z"/>
<path class="st0" d="M-106.4-108L-106.4-108L-106.4-108L-106.4-108L-106.4-108L-106.4-108C-106.5-108-106.5-108-106.4-108z"/>
<path class="st0" d="M-106.2-108.1L-106.2-108.1L-106.2-108.1C-106.3-108.1-106.3-108-106.2-108.1z"/>
<path class="st0" d="M-106.4-108L-106.4-108C-106.3-108-106.3-108.1-106.4-108L-106.4-108z"/>
<path class="st0" d="M-105.9-108.1L-105.9-108.1C-105.9-108-105.9-108.1-105.9-108.1L-105.9-108.1z"/>
<path class="st0" d="M-105.9-108L-105.9-108L-105.9-108L-105.9-108z"/>
<path class="st0" d="M-105.8-108L-105.8-108L-105.8-108L-105.8-108C-105.7-108.1-105.8-108.1-105.8-108
	C-105.8-108.1-105.8-108.1-105.8-108L-105.8-108z"/>
<path class="st0" d="M-105.8-108L-105.8-108L-105.8-108L-105.8-108L-105.8-108L-105.8-108C-105.7-108-105.8-108-105.8-108z"/>
<path class="st0" d="M-106.4-108L-106.4-108C-106.4-108.1-106.4-108.1-106.4-108C-106.4-108.1-106.4-108.1-106.4-108
	C-106.4-108.1-106.4-108.1-106.4-108L-106.4-108z"/>
<path class="st0" d="M-106.4-108L-106.4-108L-106.4-108L-106.4-108L-106.4-108L-106.4-108z"/>
<path class="st0" d="M-105.9-108C-105.8-108-105.8-108-105.9-108C-105.8-108.1-105.8-108.1-105.9-108
	C-105.8-108.1-105.8-108.1-105.9-108C-105.9-108.1-105.9-108.1-105.9-108L-105.9-108z"/>
<path class="st0" d="M-105.9-108L-105.9-108L-105.9-108C-105.8-108-105.8-108-105.9-108C-105.8-108-105.8-108-105.9-108
	C-105.8-108-105.8-108-105.9-108L-105.9-108z"/>
<path class="st0" d="M-101.4-104.9L-101.4-104.9C-101.4-104.9-101.3-104.9-101.4-104.9L-101.4-104.9L-101.4-104.9z"/>
<path class="st1" d="M48.3,23.1v24.4H74V23.1H48.3z M71.4,36.6l-8,8c-0.6,0.6-1.3,0.8-2,0.8c-0.7,0-1.5-0.3-2-0.8l-7.9-7.9
	c-1.1-1.1-1.1-2.9,0-4l8-8c1.1-1.1,2.9-1.1,4,0l7.9,7.9c0.5,0.5,0.8,1.3,0.8,2C72.2,35.4,71.9,36.1,71.4,36.6z"/>
<path class="st1" d="M76.1,5.8c-0.4-0.4-0.8-0.5-1.3-0.5c-0.5,0-0.9,0.2-1.3,0.5l-8,8c-0.7,0.7-0.7,1.9,0,2.6l7.9,7.9
	c0.7,0.7,1.9,0.7,2.6,0l8-8c0.3-0.4,0.5-0.8,0.5-1.3c0-0.5-0.2-1-0.5-1.3L76.1,5.8z"/>
<path class="st0" d="M22,8.7c-0.1-0.3-0.2-0.6-0.4-0.9c-0.5-0.7-1.3-1.2-2.2-1.2H7.1c-0.9,0-1.7,0.4-2.2,1.2
	C4.7,8.1,4.6,8.4,4.5,8.7c0,0.2-0.1,0.4-0.1,0.6v9.9c0,1.5,1.2,2.6,2.6,2.6h12.3c1.5,0,2.6-1.2,2.6-2.6V9.3C22,9.1,22,8.9,22,8.7z
	 M14.3,14.5c-0.6,0.6-1.5,0.6-2.1,0l-6.3-6c0.3-0.4,0.8-0.7,1.3-0.7h12.3c0.5,0,1,0.3,1.3,0.7L14.3,14.5z M20.9,9.8v9.4
	c0,0.8-0.7,1.5-1.5,1.5H7.1c-0.8,0-1.5-0.7-1.5-1.5V9.8l5.8,5.5c0.5,0.5,1.2,0.7,1.9,0.7c0.7,0,1.4-0.3,1.9-0.7L20.9,9.8z"/>
</svg>
