<?xml version="1.0" encoding="utf-8"?>
<!-- Generator: Adobe Illustrator 23.0.1, SVG Export Plug-In . SVG Version: 6.00 Build 0)  -->
<svg version="1.1" id="Capa_1" xmlns="http://www.w3.org/2000/svg" xmlns:xlink="http://www.w3.org/1999/xlink" x="0px" y="0px"
	 viewBox="0 0 154.9 20.8" style="enable-background:new 0 0 154.9 20.8;" xml:space="preserve">
<style type="text/css">
	.st0{fill:#FFFFFF;}
	.st1{fill:#EECA3D;}
</style>
<g>
	<g>
		<g>
			<path class="st0" d="M60.8,17l-0.6-2.5h-3L56.6,17h-3.1l3.3-13.5h3.8L64,17H60.8z M58.7,6.4L58.7,6.4l-1.2,5.8h2.3L58.7,6.4z"/>
			<path class="st0" d="M73.6,14.1c-0.2,0.7-0.4,1.2-0.8,1.7c-0.4,0.5-0.8,0.9-1.4,1.1c-0.6,0.3-1.3,0.4-2.1,0.4s-1.5-0.1-2.1-0.4
				c-0.6-0.3-1-0.7-1.4-1.1s-0.6-1.1-0.8-1.7c-0.2-0.7-0.2-1.4-0.2-2.1V3.4h3.1v8.3c0,0.4,0,0.7,0.1,1.1c0,0.3,0.1,0.6,0.2,0.9
				c0.1,0.2,0.3,0.4,0.5,0.6c0.2,0.1,0.4,0.2,0.7,0.2c0.3,0,0.6-0.1,0.7-0.2c0.2-0.1,0.3-0.3,0.5-0.6c0.1-0.2,0.2-0.5,0.2-0.9
				c0-0.3,0.1-0.7,0.1-1.1V3.4h3.1V12C73.8,12.7,73.8,13.4,73.6,14.1z"/>
			<path class="st0" d="M80.3,6V17h-3V6h-2.5V3.4h8V6H80.3z"/>
			<path class="st0" d="M93.6,10.2c0,1.1-0.1,2-0.4,2.9c-0.2,0.9-0.6,1.6-1,2.3s-1,1.1-1.6,1.5c-0.6,0.3-1.4,0.5-2.2,0.5
				s-1.5-0.2-2.2-0.5c-0.6-0.3-1.2-0.8-1.6-1.5s-0.8-1.4-1-2.3c-0.2-0.9-0.4-1.9-0.4-2.9s0.1-2,0.4-2.9c0.2-0.9,0.6-1.6,1-2.2
				c0.4-0.6,1-1.1,1.6-1.4s1.4-0.5,2.2-0.5c0.8,0,1.5,0.2,2.2,0.5s1.2,0.8,1.6,1.4c0.4,0.6,0.8,1.4,1,2.2
				C93.5,8.1,93.6,9.1,93.6,10.2z M90.4,10.2c0-0.6,0-1.1-0.1-1.6c-0.1-0.5-0.2-0.9-0.4-1.3c-0.2-0.4-0.4-0.7-0.6-0.9
				C89,6.1,88.7,6,88.4,6s-0.6,0.1-0.9,0.3c-0.3,0.2-0.5,0.5-0.7,0.9c-0.2,0.4-0.3,0.8-0.4,1.3s-0.1,1-0.1,1.6c0,0.6,0,1.1,0.1,1.6
				c0.1,0.5,0.2,1,0.4,1.3c0.2,0.4,0.4,0.7,0.7,0.9c0.3,0.2,0.6,0.3,0.9,0.3s0.6-0.1,0.9-0.3c0.3-0.2,0.5-0.5,0.6-0.9
				c0.2-0.4,0.3-0.8,0.4-1.3C90.4,11.3,90.4,10.7,90.4,10.2z"/>
			<path class="st0" d="M104.8,17l0.1-9.3h-0.1l-2.3,9.3h-2.2l-2.2-9.3h-0.1l0.1,9.3h-2.8V3.4h3.9l2.2,8.7h0.1l2.1-8.7h4.1V17H104.8
				z"/>
			<path class="st0" d="M120,10.2c0,1.1-0.1,2-0.4,2.9c-0.2,0.9-0.6,1.6-1,2.3s-1,1.1-1.6,1.5c-0.6,0.3-1.4,0.5-2.2,0.5
				s-1.5-0.2-2.2-0.5c-0.6-0.3-1.2-0.8-1.6-1.5s-0.8-1.4-1-2.3c-0.2-0.9-0.4-1.9-0.4-2.9s0.1-2,0.4-2.9c0.2-0.9,0.6-1.6,1-2.2
				c0.4-0.6,1-1.1,1.6-1.4s1.4-0.5,2.2-0.5c0.8,0,1.5,0.2,2.2,0.5s1.2,0.8,1.6,1.4c0.4,0.6,0.8,1.4,1,2.2
				C119.9,8.1,120,9.1,120,10.2z M116.9,10.2c0-0.6,0-1.1-0.1-1.6c-0.1-0.5-0.2-0.9-0.4-1.3c-0.2-0.4-0.4-0.7-0.6-0.9
				c-0.3-0.2-0.6-0.3-0.9-0.3s-0.6,0.1-0.9,0.3c-0.3,0.2-0.5,0.5-0.7,0.9c-0.2,0.4-0.3,0.8-0.4,1.3s-0.1,1-0.1,1.6
				c0,0.6,0,1.1,0.1,1.6c0.1,0.5,0.2,1,0.4,1.3c0.2,0.4,0.4,0.7,0.7,0.9c0.3,0.2,0.6,0.3,0.9,0.3s0.6-0.1,0.9-0.3
				c0.3-0.2,0.5-0.5,0.6-0.9c0.2-0.4,0.3-0.8,0.4-1.3C116.9,11.3,116.9,10.7,116.9,10.2z"/>
			<path class="st0" d="M125.6,6V17h-3V6h-2.5V3.4h8V6H125.6z"/>
			<path class="st0" d="M134.9,17l-1.8-5.4h-0.9V17h-2.9V3.4h4.3c1.3,0,2.3,0.3,3.1,1c0.7,0.7,1.1,1.7,1.1,3.1
				c0,0.5-0.1,0.9-0.2,1.3s-0.3,0.7-0.4,1c-0.2,0.3-0.4,0.5-0.6,0.7c-0.2,0.2-0.5,0.3-0.7,0.4l2.3,6H134.9z M134.7,7.7
				c0-0.3,0-0.6-0.1-0.8c-0.1-0.2-0.2-0.4-0.4-0.5c-0.2-0.1-0.3-0.2-0.5-0.3S133.3,6,133.2,6h-1v3.4h0.9c0.4,0,0.8-0.1,1.1-0.4
				S134.7,8.3,134.7,7.7z"/>
			<path class="st0" d="M139.6,17V3.4h3.1V17H139.6z"/>
			<path class="st0" d="M144.4,17v-2.5l4.2-8.4h-3.8V3.4h7.3v2.4l-4.1,8.4h4.1V17H144.4z"/>
		</g>
		<g>
			<path class="st1" d="M12.8,17l0.1-9.3h-0.1L10.5,17H8.4L6.2,7.7H6.1L6.2,17H3.4V3.4h3.9l2.2,8.7h0.1l2.1-8.7h4.1V17H12.8z"/>
			<path class="st1" d="M28,10.2c0,1.1-0.1,2-0.4,2.9c-0.2,0.9-0.6,1.6-1,2.3s-1,1.1-1.6,1.5c-0.6,0.3-1.4,0.5-2.2,0.5
				s-1.5-0.2-2.2-0.5C20,16.5,19.5,16,19,15.4s-0.8-1.4-1-2.3c-0.2-0.9-0.4-1.9-0.4-2.9s0.1-2,0.4-2.9c0.2-0.9,0.6-1.6,1-2.2
				c0.4-0.6,1-1.1,1.6-1.4s1.4-0.5,2.2-0.5c0.8,0,1.5,0.2,2.2,0.5s1.2,0.8,1.6,1.4c0.4,0.6,0.8,1.4,1,2.2C27.9,8.1,28,9.1,28,10.2z
				 M24.9,10.2c0-0.6,0-1.1-0.1-1.6c-0.1-0.5-0.2-0.9-0.4-1.3c-0.2-0.4-0.4-0.7-0.6-0.9C23.5,6.1,23.2,6,22.8,6s-0.6,0.1-0.9,0.3
				c-0.3,0.2-0.5,0.5-0.7,0.9C21.1,7.6,21,8,20.9,8.5s-0.1,1-0.1,1.6c0,0.6,0,1.1,0.1,1.6c0.1,0.5,0.2,1,0.4,1.3
				c0.2,0.4,0.4,0.7,0.7,0.9c0.3,0.2,0.6,0.3,0.9,0.3s0.6-0.1,0.9-0.3c0.3-0.2,0.5-0.5,0.6-0.9c0.2-0.4,0.3-0.8,0.4-1.3
				C24.9,11.3,24.9,10.7,24.9,10.2z"/>
			<path class="st1" d="M35.6,17l-1.8-5.4h-0.9V17h-2.9V3.4h4.3c1.3,0,2.3,0.3,3.1,1c0.7,0.7,1.1,1.7,1.1,3.1c0,0.5-0.1,0.9-0.2,1.3
				s-0.3,0.7-0.4,1c-0.2,0.3-0.4,0.5-0.6,0.7c-0.2,0.2-0.5,0.3-0.7,0.4l2.3,6H35.6z M35.4,7.7c0-0.3,0-0.6-0.1-0.8
				c-0.1-0.2-0.2-0.4-0.4-0.5c-0.2-0.1-0.3-0.2-0.5-0.3S34,6,33.8,6h-1v3.4h0.9c0.4,0,0.8-0.1,1.1-0.4S35.4,8.3,35.4,7.7z"/>
			<path class="st1" d="M46.3,17l-0.6-2.5h-3L42.1,17H39l3.3-13.5h3.8L49.5,17H46.3z M44.2,6.4L44.2,6.4L43,12.1h2.3L44.2,6.4z"/>
		</g>
	</g>
</g>
</svg>
