<?xml version="1.0" encoding="utf-8"?>
<!-- Generator: Adobe Illustrator 23.0.1, SVG Export Plug-In . SVG Version: 6.00 Build 0)  -->
<svg version="1.1" id="Capa_1" xmlns="http://www.w3.org/2000/svg" xmlns:xlink="http://www.w3.org/1999/xlink" x="0px" y="0px"
	 viewBox="0 0 34 33.3" style="enable-background:new 0 0 34 33.3;" xml:space="preserve">
<style type="text/css">
	.st0{fill:#1E3565;}
</style>
<g>
	<g>
		<path class="st0" d="M22.4,12.6H11.7c-0.6,0-1.1-0.5-1.1-1.1v-0.1c0-0.6,0.5-1.1,1.1-1.1h10.7c0.6,0,1.1,0.5,1.1,1.1v0.1
			C23.5,12.1,23,12.6,22.4,12.6z"/>
		<path class="st0" d="M22.4,17.8H11.7c-0.6,0-1.1-0.5-1.1-1.1v-0.1c0-0.6,0.5-1.1,1.1-1.1h10.7c0.6,0,1.1,0.5,1.1,1.1v0.1
			C23.5,17.3,23,17.8,22.4,17.8z"/>
		<path class="st0" d="M22.4,23H11.7c-0.6,0-1.1-0.5-1.1-1.1v-0.1c0-0.6,0.5-1.1,1.1-1.1h10.7c0.6,0,1.1,0.5,1.1,1.1V22
			C23.5,22.6,23,23,22.4,23z"/>
	</g>
	<path class="st0" d="M17,31.8C8.7,31.8,1.9,25,1.9,16.7C1.9,8.3,8.7,1.5,17,1.5s15.1,6.8,15.1,15.1C32.2,25,25.4,31.8,17,31.8z
		 M17,3.8C10,3.8,4.2,9.6,4.2,16.7c0,7.1,5.8,12.9,12.9,12.9c7.1,0,12.9-5.8,12.9-12.9C29.9,9.6,24.1,3.8,17,3.8z"/>
</g>
</svg>
