<?xml version="1.0" encoding="utf-8"?>
<!-- Generator: Adobe Illustrator 23.0.1, SVG Export Plug-In . SVG Version: 6.00 Build 0)  -->
<svg version="1.1" id="Capa_1" xmlns="http://www.w3.org/2000/svg" xmlns:xlink="http://www.w3.org/1999/xlink" x="0px" y="0px"
	 viewBox="0 0 29.8 36.9" style="enable-background:new 0 0 29.8 36.9;" xml:space="preserve">
<style type="text/css">
	.st0{fill:#FFFFFF;}
	.st1{fill:#CC0938;}
</style>
<g id="_x38_DurOJ_1_">
</g>
<path class="st0" d="M-115.8-87.7L-115.8-87.7L-115.8-87.7c0.3,0,0.6,0,0.9,0l0,0l0,0C-115.2-87.7-115.5-87.7-115.8-87.7z"/>
<path class="st0" d="M-115.2-87.7c-0.2,0-0.4,0-0.6,0l0,0l0,0c0.3,0,0.6,0,0.9,0l0,0l0,0C-115-87.7-115.1-87.7-115.2-87.7z"/>
<path class="st0" d="M-106.4-107.6L-106.4-107.6C-106.4-107.7-106.4-107.7-106.4-107.6L-106.4-107.6L-106.4-107.6L-106.4-107.6
	C-106.5-107.6-106.5-107.6-106.4-107.6z"/>
<path class="st0" d="M-106.4-107.6L-106.4-107.6L-106.4-107.6L-106.4-107.6L-106.4-107.6L-106.4-107.6
	C-106.5-107.6-106.5-107.6-106.4-107.6z"/>
<path class="st0" d="M-106.2-107.7L-106.2-107.7L-106.2-107.7C-106.3-107.7-106.3-107.6-106.2-107.7z"/>
<path class="st0" d="M-106.4-107.6L-106.4-107.6C-106.3-107.6-106.3-107.7-106.4-107.6L-106.4-107.6z"/>
<path class="st0" d="M-105.9-107.7L-105.9-107.7C-105.9-107.6-105.9-107.7-105.9-107.7L-105.9-107.7z"/>
<path class="st0" d="M-105.9-107.6L-105.9-107.6L-105.9-107.6L-105.9-107.6z"/>
<path class="st0" d="M-105.8-107.6L-105.8-107.6L-105.8-107.6L-105.8-107.6C-105.7-107.7-105.8-107.7-105.8-107.6
	C-105.8-107.7-105.8-107.7-105.8-107.6L-105.8-107.6z"/>
<path class="st0" d="M-105.8-107.6L-105.8-107.6L-105.8-107.6L-105.8-107.6L-105.8-107.6L-105.8-107.6
	C-105.7-107.6-105.8-107.6-105.8-107.6z"/>
<path class="st0" d="M-106.4-107.6L-106.4-107.6C-106.4-107.7-106.4-107.7-106.4-107.6C-106.4-107.7-106.4-107.7-106.4-107.6
	C-106.4-107.7-106.4-107.7-106.4-107.6L-106.4-107.6z"/>
<path class="st0" d="M-106.4-107.6L-106.4-107.6L-106.4-107.6L-106.4-107.6L-106.4-107.6L-106.4-107.6z"/>
<path class="st0" d="M-105.9-107.6C-105.8-107.6-105.8-107.6-105.9-107.6C-105.8-107.7-105.8-107.7-105.9-107.6
	C-105.8-107.7-105.8-107.7-105.9-107.6C-105.9-107.7-105.9-107.7-105.9-107.6L-105.9-107.6z"/>
<path class="st0" d="M-105.9-107.6L-105.9-107.6L-105.9-107.6C-105.8-107.6-105.8-107.6-105.9-107.6
	C-105.8-107.6-105.8-107.6-105.9-107.6C-105.8-107.6-105.8-107.6-105.9-107.6L-105.9-107.6z"/>
<path class="st0" d="M-101.4-104.5L-101.4-104.5C-101.4-104.5-101.3-104.5-101.4-104.5L-101.4-104.5L-101.4-104.5z"/>
<g>
	<g>
		<path class="st1" d="M9.1,20.3C8.6,20.1,8,20,7.3,20H6.5H5.7H4.5v8.2h2v-2.8h0.9c0.7,0,1.3-0.1,1.7-0.3c0.5-0.2,0.8-0.5,1.1-0.9
			c0.2-0.4,0.4-0.9,0.4-1.4c0-0.6-0.1-1-0.4-1.4C9.9,20.8,9.5,20.5,9.1,20.3z M8.3,23.4c-0.2,0.2-0.5,0.3-0.9,0.3H6.5v-2.1h0.9
			c0.4,0,0.7,0.1,0.9,0.3s0.3,0.4,0.3,0.8C8.6,23,8.5,23.3,8.3,23.4z"/>
		<path class="st1" d="M17,20.5c-0.7-0.3-1.4-0.5-2.3-0.5h-0.9h-0.7h-1.3v8.2h1.3h0.7h0.9c0.9,0,1.7-0.2,2.3-0.5
			c0.7-0.3,1.2-0.8,1.5-1.4s0.5-1.3,0.5-2.2c0-0.8-0.2-1.6-0.5-2.2S17.7,20.8,17,20.5z M16.8,25.2c-0.1,0.3-0.3,0.5-0.5,0.7
			c-0.2,0.2-0.5,0.3-0.8,0.4c-0.3,0.1-0.6,0.1-0.9,0.1h-0.8v-4.7h0.8c0.3,0,0.6,0,0.9,0.1c0.3,0.1,0.5,0.2,0.8,0.4
			c0.2,0.2,0.4,0.4,0.5,0.7c0.1,0.3,0.2,0.7,0.2,1.1C17,24.5,16.9,24.9,16.8,25.2z"/>
		<polygon class="st1" points="25.3,21.7 25.3,20 22.2,20 21.6,20 20.3,20 20.3,28.2 22.2,28.2 22.2,24.9 25.2,24.9 25.2,23.3 
			22.2,23.3 22.2,21.7 		"/>
	</g>
	<path class="st1" d="M25.7,35.8H3.9c-1.5,0-2.7-1.2-2.7-2.7V3.7C1.2,2.2,2.4,1,3.9,1h8.3c8.9,0,16.1,7.2,16.1,16.1v16
		C28.3,34.6,27.1,35.8,25.7,35.8z M3.9,2.5c-0.6,0-1.2,0.5-1.2,1.2v29.5c0,0.6,0.5,1.2,1.2,1.2h21.8c0.6,0,1.2-0.5,1.2-1.2V17.8
		c0-2.8-2.2-5-5-5h-2.6c-1.5,0-2.7-1.2-2.7-2.7V7.5c0-2.8-2.2-5-5-5H3.9z M16.3,3.1c1.1,1.2,1.7,2.7,1.7,4.4v2.6
		c0,0.6,0.5,1.2,1.2,1.2h2.6c1.7,0,3.3,0.7,4.4,1.7C24.8,8.3,21.1,4.5,16.3,3.1z"/>
</g>
</svg>
