<?xml version="1.0" encoding="utf-8"?>
<!-- Generator: Adobe Illustrator 23.0.1, SVG Export Plug-In . SVG Version: 6.00 Build 0)  -->
<svg version="1.1" id="Capa_1" xmlns="http://www.w3.org/2000/svg" xmlns:xlink="http://www.w3.org/1999/xlink" x="0px" y="0px"
	 viewBox="0 0 12 12" style="enable-background:new 0 0 12 12;" xml:space="preserve">
<style type="text/css">
	.st0{fill:#FFFFFF;}
</style>
<path class="st0" d="M1.9,10c0,0,0.2,0,0.4,0h0.3l1.4-1.5C4.7,7.7,5.3,7,5.4,7c0,0,0.4,0.4,1.2,1.5L7.7,10l1.2,0c0.7,0,1.2,0,1.2,0
	c0,0-0.8-1-1.7-2.3L6.8,5.4L7,5.2c0.1-0.1,0.7-0.8,1.4-1.5C9,3.1,9.6,2.4,9.7,2.3l0.2-0.2H9.1L7.8,3.6C7.1,4.3,6.5,5,6.5,5
	S6,4.3,5.4,3.6l-1-1.4H3.1c-0.7,0-1.2,0-1.2,0c0,0,0.7,1,1.6,2.2c0.9,1.2,1.6,2.2,1.6,2.2c0,0-0.7,0.8-1.6,1.7
	C2.6,9.2,1.9,10,1.9,10z M3,2.8L3,2.8c0-0.1,0.1-0.1,0.5-0.1h0.6L6.6,6c1.4,1.8,2.5,3.4,2.5,3.4c0,0-0.2,0-0.5,0L8,9.5L5.5,6.1
	C4.1,4.3,3,2.8,3,2.8z"/>
</svg>
