<?xml version="1.0" encoding="utf-8"?>
<!-- Generator: Adobe Illustrator 23.0.1, SVG Export Plug-In . SVG Version: 6.00 Build 0)  -->
<svg version="1.1" id="Capa_1" xmlns="http://www.w3.org/2000/svg" xmlns:xlink="http://www.w3.org/1999/xlink" x="0px" y="0px"
	 viewBox="0 0 26.7 27.2" style="enable-background:new 0 0 26.7 27.2;" xml:space="preserve">
<style type="text/css">
	.st0{fill:#fff;}
	.st1{fill:#fff;}
	.st2{fill:#fff;}
</style>
<g id="_x38_DurOJ_1_">
</g>
<path class="st0" d="M-1113.6-341.7c27.2-0.1,54.4-0.1,81.6-0.1h-83.7C-1115.1-341.7-1114.4-341.7-1113.6-341.7z"/>
<path class="st0" d="M-929.9-946.1c0-4.5-1.1-5.7-5.7-5.7c-199.6,0.1-399.2,0.1-598.8,0c-4.6,0-5.6,1.3-5.6,5.7
	c0.1,99.8,0.1,199.6,0.1,299.4s0,199.6-0.1,299.4c0,4.1,0.5,5.6,5.3,5.6c104.8-0.2,209.6-0.2,314.4,0c0.7,0,1.4,0,1.9-0.1h-119.7
	v-561.3h329.9v561.3h-7.9c26.8,0,53.6,0,80.4,0.1c4.4,0,5.8-0.9,5.8-5.6C-930-546.9-930-746.5-929.9-946.1z"/>
<path class="st0" d="M-1031.9-341.8h15.9C-1021.3-341.8-1026.6-341.8-1031.9-341.8z"/>
<path class="st0" d="M-426.9-903.1h-329.9v561.3h119.7c2.5-0.3,3.4-1.5,3.4-5c-0.1-75.1-0.1-150.3,0-225.4c0-4-0.9-5.4-5.2-5.4
	c-23.2,0.2-46.3,0-69.5,0.2c-3.8,0-5.1-0.9-5.1-4.9c0.2-28.7,0.2-57.3,0-86c0-4.7,1.5-5.4,5.7-5.4c23,0.2,46,0,69,0.2
	c3.8,0,5.1-0.9,5.1-5c-0.2-21.2-0.1-42.3-0.1-63.5c0-9.8-0.1-19.6,1.3-29.4c6.8-46.4,47.6-85.2,94.4-88.5c29.9-2.1,60-0.4,89.9-0.9
	c3.9-0.1,3.7,2.1,3.7,4.8c0,25.7-0.1,51.3,0.1,77c0,4-1.2,5.1-5.1,5c-17.2-0.2-34.3-0.1-51.5-0.1c-22.8,0-36.7,13.8-36.8,36.7
	c-0.1,19.3,0.1,38.7-0.1,58c-0.1,4.5,0.9,5.9,5.7,5.9c26.8-0.2,53.7,0,80.5-0.2c4.5,0,5.7,1,5,5.5c-4,28.7-7.8,57.4-11.4,86.1
	c-0.5,4-2.2,4.6-5.7,4.6c-22.7-0.1-45.3,0.1-68-0.2c-4.7-0.1-6.2,1-6.2,6c0.2,74.8,0.2,149.6,0,224.4c0,3.5,0.6,5,3.4,5.4h83.7
	c5.3,0,10.6,0,15.9,0h7.9v-561.2H-426.9z"/>
<path class="st1" d="M-115.8-88.1L-115.8-88.1L-115.8-88.1c0.3,0,0.6,0,0.9,0l0,0l0,0C-115.2-88.1-115.5-88.1-115.8-88.1z"/>
<path class="st1" d="M-115.2-88.1c-0.2,0-0.4,0-0.6,0l0,0l0,0c0.3,0,0.6,0,0.9,0l0,0l0,0C-115-88.1-115.1-88.1-115.2-88.1z"/>
<path class="st1" d="M-106.4-108L-106.4-108C-106.4-108.1-106.4-108.1-106.4-108L-106.4-108L-106.4-108L-106.4-108
	C-106.5-108-106.5-108-106.4-108z"/>
<path class="st1" d="M-106.4-108L-106.4-108L-106.4-108L-106.4-108L-106.4-108L-106.4-108C-106.5-108-106.5-108-106.4-108z"/>
<path class="st1" d="M-106.2-108.1L-106.2-108.1L-106.2-108.1C-106.3-108.1-106.3-108-106.2-108.1z"/>
<path class="st1" d="M-106.4-108L-106.4-108C-106.3-108-106.3-108.1-106.4-108L-106.4-108z"/>
<path class="st1" d="M-105.9-108.1L-105.9-108.1C-105.9-108-105.9-108.1-105.9-108.1L-105.9-108.1z"/>
<path class="st1" d="M-105.9-108L-105.9-108L-105.9-108C-105.9-108-105.9-108-105.9-108z"/>
<path class="st1" d="M-105.8-108L-105.8-108L-105.8-108L-105.8-108C-105.7-108.1-105.8-108.1-105.8-108
	C-105.8-108.1-105.8-108.1-105.8-108L-105.8-108z"/>
<path class="st1" d="M-105.8-108L-105.8-108L-105.8-108L-105.8-108L-105.8-108L-105.8-108C-105.7-108-105.8-108-105.8-108z"/>
<path class="st1" d="M-106.4-108L-106.4-108C-106.4-108.1-106.4-108.1-106.4-108C-106.4-108.1-106.4-108.1-106.4-108
	C-106.4-108.1-106.4-108.1-106.4-108L-106.4-108z"/>
<path class="st1" d="M-106.4-108L-106.4-108L-106.4-108L-106.4-108L-106.4-108L-106.4-108z"/>
<path class="st1" d="M-105.9-108C-105.8-108-105.8-108-105.9-108C-105.8-108.1-105.8-108.1-105.9-108
	C-105.8-108.1-105.8-108.1-105.9-108C-105.9-108.1-105.9-108.1-105.9-108L-105.9-108z"/>
<path class="st1" d="M-105.9-108L-105.9-108L-105.9-108C-105.8-108-105.8-108-105.9-108C-105.8-108-105.8-108-105.9-108
	C-105.8-108-105.8-108-105.9-108L-105.9-108z"/>
<path class="st1" d="M-101.4-104.9L-101.4-104.9C-101.4-104.9-101.3-104.9-101.4-104.9L-101.4-104.9L-101.4-104.9z"/>
<g>
	<path class="st2" d="M2.1,25.1c1.8-0.5,3.6-0.9,5.4-1.4c0.1,0,0.2,0,0.2,0c1.4,0.8,3,1.2,4.6,1.3c3.2,0.2,6.1-0.7,8.6-2.7
		c2.2-1.8,3.6-4.2,4.1-7c0.7-3.9-0.3-7.3-3-10.2c-1.8-2-4.1-3.2-6.8-3.6c-0.4-0.1-0.8-0.1-1.2-0.1h-0.1c-0.1,0-0.1,0-0.2,0
		c-0.2,0-0.5,0-0.7,0c-0.1,0-0.1,0-0.2,0h-0.1C9.7,1.6,7.2,2.7,5,4.7c-1.7,1.6-2.8,3.6-3.4,6c-0.6,2.7-0.3,5.2,0.9,7.7
		c0.1,0.2,0.2,0.5,0.4,0.7c0,0.1,0,0.1,0,0.2c-0.5,2-1.1,4-1.6,5.9v0.1c0,0,0,0.1,0.1,0.1C1.6,25.3,1.9,25.2,2.1,25.1z M6.1,6.5
		c1.5-1.6,3.4-2.7,5.6-3C15,3,17.9,3.9,20.3,6.2c1.4,1.3,2.3,3,2.7,4.9c0.5,2.2,0.3,4.4-0.8,6.5c-1.2,2.5-3.2,4.2-5.8,5.1
		c-0.9,0.3-1.9,0.5-2.9,0.5c-2,0-3.8-0.5-5.5-1.5c-0.1-0.1-0.2-0.1-0.3,0c-1.2,0.3-2.3,0.6-3.5,0.9H4.1c0.1-0.3,0.2-0.7,0.3-1
		c0.2-0.8,0.5-1.7,0.7-2.5c0-0.1,0-0.2,0-0.3c-0.7-1-1.2-2.1-1.4-3.3C3,12.1,3.7,9.1,6.1,6.5z"/>
	<path class="st2" d="M8.5,13.8c0.9,1.3,1.9,2.4,3.2,3.3c1.2,0.9,2.5,1.4,3.8,1.8c1.1,0.3,2.1,0.1,3-0.6c0.4-0.3,0.7-0.7,0.8-1.1
		c0-0.2,0.1-0.4,0.1-0.7c0-0.4,0-0.5-0.4-0.6c-0.4-0.2-0.7-0.4-1.1-0.5c-0.4-0.2-0.9-0.4-1.3-0.6c-0.3-0.1-0.4,0-0.6,0.2
		c-0.3,0.4-0.6,0.8-0.9,1.1c-0.2,0.2-0.3,0.2-0.6,0.1c-0.1,0-0.2-0.1-0.3-0.1c-1.7-0.7-2.9-1.9-3.8-3.4c-0.2-0.3-0.1-0.4,0.1-0.6
		c0.3-0.3,0.6-0.6,0.8-1c0.1-0.2,0.1-0.3,0-0.5c-0.2-0.4-0.3-0.8-0.5-1.1c-0.2-0.4-0.3-0.8-0.5-1.2C10.2,7.9,10,7.7,9.7,7.8
		c-0.1,0-0.2,0-0.2,0c-0.1,0-0.2,0-0.3,0c-0.3,0-0.6,0.1-0.8,0.3c-1,1-1.3,2.2-0.9,3.6C7.6,12.4,8.1,13.1,8.5,13.8z"/>
</g>
</svg>
